HIERARCHY
ROOT Hip
{
	OFFSET -0.314859 0.139423 0.305556
	CHANNELS 6 Xposition Yposition Zposition Xrotation Yrotation Zrotation
	JOINT LowerSpine
	{
		OFFSET -0.013303 0.142686 0.265770
		CHANNELS 6 Xposition Yposition Zposition Xrotation Yrotation Zrotation
		JOINT MiddleSpine
		{
			OFFSET -0.015480 -0.021664 0.235535
			CHANNELS 3 Xrotation Yrotation Zrotation
			JOINT Chest
			{
				OFFSET -0.017563 0.045568 0.294782
				CHANNELS 3 Xrotation Yrotation Zrotation
				JOINT Neck
				{
					OFFSET -0.042211 -0.017065 0.658764
					CHANNELS 6 Xposition Yposition Zposition Xrotation Yrotation Zrotation
					JOINT Head
					{
						OFFSET -0.026220 -0.117884 0.367022
						CHANNELS 3 Xrotation Yrotation Zrotation
						End Site
						{
							OFFSET -0.003480 -0.003981 0.053305
						}
					}
				}
				JOINT LClavicle
				{
					OFFSET 0.014539 -0.226075 0.629944
					CHANNELS 6 Xposition Yposition Zposition Xrotation Yrotation Zrotation
					JOINT LShoulder
					{
						OFFSET 0.347021 0.134902 0.120095
						CHANNELS 3 Xrotation Yrotation Zrotation
						JOINT LForearm
						{
							OFFSET 0.825605 -0.013273 0.049754
							CHANNELS 3 Xrotation Yrotation Zrotation
							JOINT LHand
							{
								OFFSET 0.688403 -0.013115 0.045854
								CHANNELS 3 Xrotation Yrotation Zrotation
								JOINT LFinger1
								{
									OFFSET 0.263684 -0.081874 0.036822
									CHANNELS 6 Xposition Yposition Zposition Xrotation Yrotation Zrotation
									JOINT LFinger11
									{
										OFFSET 0.100986 -0.019003 -0.018800
										CHANNELS 3 Xrotation Yrotation Zrotation
										JOINT LFinger12
										{
											OFFSET 0.068941 -0.012977 -0.012839
											CHANNELS 3 Xrotation Yrotation Zrotation
											End Site
											{
												OFFSET 0.051395 -0.008802 -0.012263
											}
										}
									}
								}
								JOINT LFinger2
								{
									OFFSET 0.268921 -0.014410 0.043805
									CHANNELS 6 Xposition Yposition Zposition Xrotation Yrotation Zrotation
									JOINT LFinger21
									{
										OFFSET 0.123395 -0.002360 0.008204
										CHANNELS 3 Xrotation Yrotation Zrotation
										JOINT LFinger22
										{
											OFFSET 0.068398 -0.001297 0.004567
											CHANNELS 3 Xrotation Yrotation Zrotation
											End Site
											{
												OFFSET 0.053551 -0.001231 -0.000383
											}
										}
									}
								}
								JOINT LFinger3
								{
									OFFSET 0.256817 0.053581 0.037051
									CHANNELS 6 Xposition Yposition Zposition Xrotation Yrotation Zrotation
									JOINT LFinger31
									{
										OFFSET 0.112496 0.004482 0.001762
										CHANNELS 3 Xrotation Yrotation Zrotation
										JOINT LFinger32
										{
											OFFSET 0.064105 0.002566 0.001025
											CHANNELS 3 Xrotation Yrotation Zrotation
											End Site
											{
												OFFSET 0.053460 0.001479 -0.003033
											}
										}
									}
								}
								JOINT LFinger4
								{
									OFFSET 0.241628 0.099838 0.001862
									CHANNELS 6 Xposition Yposition Zposition Xrotation Yrotation Zrotation
									JOINT LFinger41
									{
										OFFSET 0.070219 0.017957 -0.009107
										CHANNELS 3 Xrotation Yrotation Zrotation
										JOINT LFinger42
										{
											OFFSET 0.051493 0.013176 -0.006663
											CHANNELS 3 Xrotation Yrotation Zrotation
											End Site
											{
												OFFSET 0.051462 0.010920 -0.010090
											}
										}
									}
								}
								JOINT LFinger0
								{
									OFFSET 0.056970 -0.041397 -0.040175
									CHANNELS 6 Xposition Yposition Zposition Xrotation Yrotation Zrotation
									JOINT LFinger01
									{
										OFFSET 0.103236 -0.078611 -0.030780
										CHANNELS 3 Xrotation Yrotation Zrotation
										JOINT LFinger02
										{
											OFFSET 0.068159 -0.049407 -0.022153
											CHANNELS 3 Xrotation Yrotation Zrotation
											End Site
											{
												OFFSET 0.042719 -0.029481 -0.013240
											}
										}
									}
								}
							}
						}
					}
				}
				JOINT RClavicle
				{
					OFFSET -0.105163 -0.223090 0.622351
					CHANNELS 6 Xposition Yposition Zposition Xrotation Yrotation Zrotation
					JOINT RShoulder
					{
						OFFSET -0.352349 0.152351 0.075752
						CHANNELS 3 Xrotation Yrotation Zrotation
						JOINT RForearm
						{
							OFFSET -0.824913 0.027851 -0.054938
							CHANNELS 3 Xrotation Yrotation Zrotation
							JOINT RHand
							{
								OFFSET -0.688479 0.021191 -0.041482
								CHANNELS 3 Xrotation Yrotation Zrotation
								JOINT RFinger1
								{
									OFFSET -0.269957 -0.068578 0.002976
									CHANNELS 6 Xposition Yposition Zposition Xrotation Yrotation Zrotation
									JOINT RFinger11
									{
										OFFSET -0.098622 -0.014030 -0.031461
										CHANNELS 3 Xrotation Yrotation Zrotation
										JOINT RFinger12
										{
											OFFSET -0.067327 -0.009582 -0.021485
											CHANNELS 3 Xrotation Yrotation Zrotation
											End Site
											{
												OFFSET -0.049808 -0.006280 -0.018682
											}
										}
									}
								}
								JOINT RFinger2
								{
									OFFSET -0.272681 -0.000915 0.009454
									CHANNELS 6 Xposition Yposition Zposition Xrotation Yrotation Zrotation
									JOINT RFinger21
									{
										OFFSET -0.123410 0.003789 -0.007450
										CHANNELS 3 Xrotation Yrotation Zrotation
										JOINT RFinger22
										{
											OFFSET -0.068407 0.002114 -0.004110
											CHANNELS 3 Xrotation Yrotation Zrotation
											End Site
											{
												OFFSET -0.053068 0.001426 -0.007146
											}
										}
									}
								}
								JOINT RFinger3
								{
									OFFSET -0.256464 0.066370 0.004494
									CHANNELS 6 Xposition Yposition Zposition Xrotation Yrotation Zrotation
									JOINT RFinger31
									{
										OFFSET -0.111456 0.010062 -0.012443
										CHANNELS 3 Xrotation Yrotation Zrotation
										JOINT RFinger32
										{
											OFFSET -0.063515 0.005746 -0.007070
											CHANNELS 3 Xrotation Yrotation Zrotation
											End Site
											{
												OFFSET -0.052509 0.004119 -0.009754
											}
										}
									}
								}
								JOINT RFinger4
								{
									OFFSET -0.234678 0.111706 -0.028350
									CHANNELS 6 Xposition Yposition Zposition Xrotation Yrotation Zrotation
									JOINT RFinger41
									{
										OFFSET -0.067529 0.021389 -0.017842
										CHANNELS 3 Xrotation Yrotation Zrotation
										JOINT RFinger42
										{
											OFFSET -0.049521 0.015693 -0.013067
											CHANNELS 3 Xrotation Yrotation Zrotation
											End Site
											{
												OFFSET -0.049170 0.013428 -0.016473
											}
										}
									}
								}
								JOINT RFinger0
								{
									OFFSET -0.053424 -0.038644 -0.047174
									CHANNELS 6 Xposition Yposition Zposition Xrotation Yrotation Zrotation
									JOINT RFinger01
									{
										OFFSET -0.102294 -0.073492 -0.043822
										CHANNELS 3 Xrotation Yrotation Zrotation
										JOINT RFinger02
										{
											OFFSET -0.067180 -0.046035 -0.030735
											CHANNELS 3 Xrotation Yrotation Zrotation
											End Site
											{
												OFFSET -0.042115 -0.027367 -0.018621
											}
										}
									}
								}
							}
						}
					}
				}
			}
		}
	}
	JOINT RThigh
	{
		OFFSET -0.313055 0.027533 0.098666
		CHANNELS 6 Xposition Yposition Zposition Xrotation Yrotation Zrotation
		JOINT RShin
		{
			OFFSET 0.055522 0.054320 -1.204935
			CHANNELS 3 Xrotation Yrotation Zrotation
			JOINT RFoot
			{
				OFFSET 0.076277 0.052797 -1.181795
				CHANNELS 3 Xrotation Yrotation Zrotation
				JOINT RToe
				{
					OFFSET 0.002400 -0.266294 -0.142432
					CHANNELS 3 Xrotation Yrotation Zrotation
					End Site
					{
						OFFSET -0.001176 -0.053497 -0.002466
					}
				}
			}
		}
	}
	JOINT LThigh
	{
		OFFSET 0.299061 0.012284 0.137501
		CHANNELS 6 Xposition Yposition Zposition Xrotation Yrotation Zrotation
		JOINT LShin
		{
			OFFSET 0.099841 0.053217 -1.202132
			CHANNELS 3 Xrotation Yrotation Zrotation
			JOINT LFoot
			{
				OFFSET 0.076277 0.052797 -1.181795
				CHANNELS 3 Xrotation Yrotation Zrotation
				JOINT LToe
				{
					OFFSET 0.002400 -0.266296 -0.142432
					CHANNELS 3 Xrotation Yrotation Zrotation
					End Site
					{
						OFFSET -0.001176 -0.053496 -0.002466
					}
				}
			}
		}
	}
}
MOTION
Frames: 4
Frame Time: 0.041667
0.094661 1.248421 1.703266 1.454660 24.774580 52.732957 -0.013303 0.142686 0.265771 -0.000009 -0.000054 -0.000027 -2.051745 7.609764 -2.533180 -5.976318 25.627484 -7.692634 -0.042211 -0.017065 0.658765 -19.186464 11.825272 4.724935 -26.006695 37.305219 10.476178 0.014539 -0.226074 0.629943 -0.378067 -13.512474 -0.670639 -40.665290 -32.948279 3.038675 1.406461 0.628719 -18.949947 -0.000010 -0.000014 0.000006 0.263684 -0.081874 0.036821 0.000001 0.000003 -0.000040 0.000001 -0.000022 0.000075 0.000001 -0.000003 -0.000033 0.268921 -0.014410 0.043805 0.000006 -0.000009 -0.000030 0.000003 0.000005 0.000010 0.000004 0.000005 -0.000038 0.256817 0.053581 0.037051 0.000006 -0.000003 -0.000032 0.000003 0.000004 -0.000015 -0.000006 -0.000009 0.000028 0.241629 0.099838 0.001861 0.000001 0.000004 -0.000036 -0.000004 0.000003 -0.000013 0.000002 0.000000 0.000019 0.056970 -0.041397 -0.040175 0.000020 0.000006 -0.000052 -0.000009 -0.000018 0.000044 0.000009 -0.000012 0.000001 -0.105163 -0.223089 0.622351 0.319909 28.729732 1.270607 -79.418421 56.858805 72.499651 0.047224 0.032253 -0.728444 -0.000000 -0.000003 0.000000 -0.269956 -0.068578 0.002976 -0.000001 -0.000008 -0.000002 0.000004 -0.000003 0.000009 0.000002 0.000001 0.000009 -0.272681 -0.000916 0.009454 -0.000001 -0.000003 -0.000002 0.000000 -0.000005 0.000014 0.000002 -0.000002 -0.000006 -0.256464 0.066370 0.004494 -0.000001 -0.000001 -0.000001 0.000000 0.000005 0.000000 0.000004 -0.000006 0.000023 -0.234678 0.111705 -0.028351 -0.000000 -0.000003 0.000003 0.000001 0.000002 -0.000003 0.000002 -0.000003 -0.000005 -0.053424 -0.038644 -0.047174 -0.000013 -0.000002 -0.000009 0.000008 0.000012 -0.000013 0.000006 -0.000004 0.000020 -0.282097 -0.018811 -0.021792 -68.555777 43.135261 -17.003715 73.510642 1.234542 4.507432 -0.880075 -0.730131 1.324778 0.000050 -0.000004 -0.000006 0.312804 -0.008270 0.084074 -101.156345 -56.704521 -10.479010 79.354613 1.560881 4.736080 -0.995802 0.999357 -1.846322 -1.609905 0.041479 -0.101661 
0.094661 1.248421 1.703266 1.454660 24.774580 52.732957 -0.013303 0.142686 0.265771 -0.000009 -0.000054 -0.000027 -2.051745 7.609764 -2.533180 -5.976318 25.627484 -7.692634 -0.042211 -0.017065 0.658765 -19.186464 11.825272 4.724935 -26.006695 37.305219 10.476178 0.014539 -0.226074 0.629943 -0.378067 -13.512474 -0.670639 -40.665290 -32.948279 3.038675 1.406461 0.628719 -18.949947 -0.000010 -0.000014 0.000006 0.263684 -0.081874 0.036821 0.000001 0.000003 -0.000040 0.000001 -0.000022 0.000075 0.000001 -0.000003 -0.000033 0.268921 -0.014410 0.043805 0.000006 -0.000009 -0.000030 0.000003 0.000005 0.000010 0.000004 0.000005 -0.000038 0.256817 0.053581 0.037051 0.000006 -0.000003 -0.000032 0.000003 0.000004 -0.000015 -0.000006 -0.000009 0.000028 0.241629 0.099838 0.001861 0.000001 0.000004 -0.000036 -0.000004 0.000003 -0.000013 0.000002 0.000000 0.000019 0.056970 -0.041397 -0.040175 0.000020 0.000006 -0.000052 -0.000009 -0.000018 0.000044 0.000009 -0.000012 0.000001 -0.105163 -0.223089 0.622351 0.319909 28.729732 1.270607 -79.418421 56.858805 72.499651 0.047224 0.032253 -0.728444 -0.000000 -0.000003 0.000000 -0.269956 -0.068578 0.002976 -0.000001 -0.000008 -0.000002 0.000004 -0.000003 0.000009 0.000002 0.000001 0.000009 -0.272681 -0.000916 0.009454 -0.000001 -0.000003 -0.000002 0.000000 -0.000005 0.000014 0.000002 -0.000002 -0.000006 -0.256464 0.066370 0.004494 -0.000001 -0.000001 -0.000001 0.000000 0.000005 0.000000 0.000004 -0.000006 0.000023 -0.234678 0.111705 -0.028351 -0.000000 -0.000003 0.000003 0.000001 0.000002 -0.000003 0.000002 -0.000003 -0.000005 -0.053424 -0.038644 -0.047174 -0.000013 -0.000002 -0.000009 0.000008 0.000012 -0.000013 0.000006 -0.000004 0.000020 -0.282097 -0.018811 -0.021792 -68.555777 43.135261 -17.003715 73.510642 1.234542 4.507432 -0.880075 -0.730131 1.324778 0.000050 -0.000004 -0.000006 0.312804 -0.008270 0.084074 -101.156345 -56.704521 -10.479010 79.354613 1.560881 4.736080 -0.995802 0.999357 -1.846322 -1.609905 0.041479 -0.101661 
0.090301 1.250147 1.703120 1.801225 24.940104 52.537631 -0.013303 0.142685 0.265771 -0.000007 -0.000053 -0.000021 -1.959945 7.772620 -2.574830 -5.724017 26.152998 -7.862548 -0.042211 -0.017065 0.658765 -19.472132 11.201894 4.399815 -25.416464 37.334466 10.306790 0.014539 -0.226075 0.629943 -0.395967 -14.024694 -0.698530 -22.094554 -32.804125 13.002229 1.113674 0.542351 -15.222289 -0.000009 -0.000014 0.000005 0.263683 -0.081874 0.036821 -0.000001 0.000003 -0.000043 0.000003 -0.000022 0.000072 -0.000005 -0.000005 -0.000023 0.268921 -0.014409 0.043805 0.000005 -0.000008 -0.000033 -0.000001 0.000006 0.000003 0.000006 0.000007 -0.000041 0.256817 0.053582 0.037051 0.000005 -0.000004 -0.000034 0.000003 0.000004 -0.000012 -0.000003 -0.000004 0.000020 0.241629 0.099838 0.001861 -0.000001 0.000007 -0.000037 -0.000001 -0.000001 -0.000011 -0.000002 -0.000002 0.000023 0.056970 -0.041397 -0.040175 0.000014 0.000006 -0.000054 -0.000008 -0.000019 0.000044 0.000010 -0.000006 -0.000006 -0.105163 -0.223089 0.622351 0.319938 28.451604 1.257776 -77.077776 59.778936 70.282059 0.021893 0.014925 -0.320222 0.000001 0.000001 -0.000000 -0.269957 -0.068578 0.002976 0.000001 -0.000009 0.000002 0.000001 0.000000 0.000008 0.000004 -0.000003 0.000011 -0.272681 -0.000915 0.009454 -0.000000 -0.000001 -0.000003 -0.000000 -0.000008 0.000015 -0.000000 -0.000002 -0.000007 -0.256464 0.066371 0.004494 -0.000001 -0.000001 -0.000003 0.000004 0.000010 0.000001 0.000001 -0.000001 0.000023 -0.234679 0.111706 -0.028350 0.000002 -0.000002 -0.000001 -0.000001 -0.000003 0.000000 -0.000001 0.000006 -0.000004 -0.053424 -0.038643 -0.047173 -0.000010 -0.000004 -0.000004 0.000004 0.000013 -0.000012 0.000009 -0.000003 0.000020 -0.281974 -0.019289 -0.022555 -69.941096 42.753043 -15.380490 74.189604 1.271237 4.535695 -1.862410 -0.774008 1.361900 0.000054 -0.000001 -0.000006 0.312804 -0.008347 0.084070 -101.130356 -56.185703 -10.641151 79.178490 1.550712 4.729679 -1.398042 1.145835 -2.103748 -1.147945 0.029265 -0.072644 
0.087957 1.251390 1.703041 1.953173 25.023361 52.422856 -0.013303 0.142685 0.265770 -0.000005 -0.000053 -0.000025 -1.926267 7.833720 -2.585730 -5.678170 26.351083 -7.901048 -0.042211 -0.017065 0.658764 -19.437644 11.004715 4.293352 -25.202321 37.343175 10.245073 0.014539 -0.226075 0.629943 -0.400733 -14.160064 -0.705930 -16.854977 -32.190750 14.975801 0.912925 0.473315 -12.738322 -0.000006 -0.000013 -0.000004 0.263684 -0.081874 0.036822 -0.000001 0.000002 -0.000037 0.000001 -0.000020 0.000076 -0.000005 -0.000007 -0.000022 0.268922 -0.014410 0.043806 0.000005 -0.000010 -0.000031 -0.000001 0.000005 0.000010 0.000006 0.000006 -0.000044 0.256817 0.053582 0.037052 0.000005 -0.000003 -0.000031 0.000002 0.000005 -0.000016 -0.000004 -0.000005 0.000019 0.241629 0.099838 0.001862 -0.000001 0.000008 -0.000035 0.000001 0.000002 -0.000016 0.000001 -0.000000 0.000023 0.056970 -0.041397 -0.040175 0.000014 0.000004 -0.000049 -0.000009 -0.000013 0.000044 0.000011 -0.000007 0.000001 -0.105163 -0.223089 0.622351 0.319926 28.292237 1.250435 -76.689869 59.967654 70.399231 -0.004296 -0.004613 0.101568 -0.000000 -0.000001 -0.000000 -0.269958 -0.068578 0.002976 0.000001 -0.000012 0.000007 0.000004 0.000003 0.000013 0.000002 -0.000004 0.000016 -0.272682 -0.000915 0.009454 0.000001 -0.000003 -0.000000 0.000002 -0.000006 0.000013 0.000000 0.000004 -0.000009 -0.256465 0.066371 0.004495 0.000003 0.000001 -0.000002 0.000003 0.000007 -0.000001 0.000003 -0.000004 0.000023 -0.234679 0.111706 -0.028350 0.000002 -0.000002 0.000003 0.000000 0.000003 -0.000001 0.000002 0.000002 -0.000001 -0.053425 -0.038643 -0.047174 -0.000010 -0.000006 -0.000005 0.000008 0.000013 -0.000015 0.000002 -0.000004 0.000020 -0.281770 -0.020088 -0.023834 -70.507134 42.603390 -14.797859 74.413709 1.283425 4.544927 -2.325437 -0.793304 1.375314 0.000050 -0.000004 -0.000005 0.312806 -0.008476 0.084062 -101.155108 -55.979247 -10.757083 79.128964 1.547854 4.727874 -1.606570 1.209965 -2.213037 -0.928140 0.023537 -0.058802 
